%TF.GenerationSoftware,KiCad,Pcbnew,(5.1.10)-1*%
%TF.CreationDate,2022-01-27T04:55:15+01:00*%
%TF.ProjectId,_autosave-ESP32LedControllerRGBWWf_rJulia,5f617574-6f73-4617-9665-2d4553503332,rev?*%
%TF.SameCoordinates,Original*%
%TF.FileFunction,Soldermask,Bot*%
%TF.FilePolarity,Negative*%
%FSLAX46Y46*%
G04 Gerber Fmt 4.6, Leading zero omitted, Abs format (unit mm)*
G04 Created by KiCad (PCBNEW (5.1.10)-1) date 2022-01-27 04:55:15*
%MOMM*%
%LPD*%
G01*
G04 APERTURE LIST*
%ADD10C,0.150000*%
%ADD11C,6.400000*%
%ADD12C,2.600000*%
%ADD13R,2.600000X2.600000*%
%ADD14C,1.800000*%
%ADD15R,1.800000X1.800000*%
%ADD16C,2.000000*%
%ADD17R,2.000000X2.000000*%
%ADD18O,1.600000X1.600000*%
%ADD19C,1.600000*%
%ADD20O,1.800000X1.717500*%
%ADD21R,1.800000X1.717500*%
%ADD22O,1.700000X1.700000*%
%ADD23R,1.700000X1.700000*%
%ADD24C,2.700000*%
%ADD25C,3.000000*%
%ADD26O,2.200000X2.200000*%
%ADD27R,2.200000X2.200000*%
%ADD28R,1.600000X1.600000*%
G04 APERTURE END LIST*
D10*
X119880952Y-139329761D02*
X119642857Y-141329761D01*
X119452380Y-139901190D01*
X119261904Y-141329761D01*
X119023809Y-139329761D01*
X118166666Y-141329761D02*
X118642857Y-141329761D01*
X118642857Y-139329761D01*
X117833333Y-140282142D02*
X117500000Y-140282142D01*
X117357142Y-141329761D02*
X117833333Y-141329761D01*
X117833333Y-139329761D01*
X117357142Y-139329761D01*
X116928571Y-141329761D02*
X116928571Y-139329761D01*
X116690476Y-139329761D01*
X116547619Y-139425000D01*
X116452380Y-139615476D01*
X116404761Y-139805952D01*
X116357142Y-140186904D01*
X116357142Y-140472619D01*
X116404761Y-140853571D01*
X116452380Y-141044047D01*
X116547619Y-141234523D01*
X116690476Y-141329761D01*
X116928571Y-141329761D01*
X114595238Y-141139285D02*
X114642857Y-141234523D01*
X114785714Y-141329761D01*
X114880952Y-141329761D01*
X115023809Y-141234523D01*
X115119047Y-141044047D01*
X115166666Y-140853571D01*
X115214285Y-140472619D01*
X115214285Y-140186904D01*
X115166666Y-139805952D01*
X115119047Y-139615476D01*
X115023809Y-139425000D01*
X114880952Y-139329761D01*
X114785714Y-139329761D01*
X114642857Y-139425000D01*
X114595238Y-139520238D01*
X113976190Y-139329761D02*
X113785714Y-139329761D01*
X113690476Y-139425000D01*
X113595238Y-139615476D01*
X113547619Y-139996428D01*
X113547619Y-140663095D01*
X113595238Y-141044047D01*
X113690476Y-141234523D01*
X113785714Y-141329761D01*
X113976190Y-141329761D01*
X114071428Y-141234523D01*
X114166666Y-141044047D01*
X114214285Y-140663095D01*
X114214285Y-139996428D01*
X114166666Y-139615476D01*
X114071428Y-139425000D01*
X113976190Y-139329761D01*
X113119047Y-141329761D02*
X113119047Y-139329761D01*
X112547619Y-141329761D01*
X112547619Y-139329761D01*
X112214285Y-139329761D02*
X111642857Y-139329761D01*
X111928571Y-141329761D02*
X111928571Y-139329761D01*
X110738095Y-141329761D02*
X111071428Y-140377380D01*
X111309523Y-141329761D02*
X111309523Y-139329761D01*
X110928571Y-139329761D01*
X110833333Y-139425000D01*
X110785714Y-139520238D01*
X110738095Y-139710714D01*
X110738095Y-139996428D01*
X110785714Y-140186904D01*
X110833333Y-140282142D01*
X110928571Y-140377380D01*
X111309523Y-140377380D01*
X110119047Y-139329761D02*
X109928571Y-139329761D01*
X109833333Y-139425000D01*
X109738095Y-139615476D01*
X109690476Y-139996428D01*
X109690476Y-140663095D01*
X109738095Y-141044047D01*
X109833333Y-141234523D01*
X109928571Y-141329761D01*
X110119047Y-141329761D01*
X110214285Y-141234523D01*
X110309523Y-141044047D01*
X110357142Y-140663095D01*
X110357142Y-139996428D01*
X110309523Y-139615476D01*
X110214285Y-139425000D01*
X110119047Y-139329761D01*
X108785714Y-141329761D02*
X109261904Y-141329761D01*
X109261904Y-139329761D01*
X107976190Y-141329761D02*
X108452380Y-141329761D01*
X108452380Y-139329761D01*
X107642857Y-140282142D02*
X107309523Y-140282142D01*
X107166666Y-141329761D02*
X107642857Y-141329761D01*
X107642857Y-139329761D01*
X107166666Y-139329761D01*
X106166666Y-141329761D02*
X106500000Y-140377380D01*
X106738095Y-141329761D02*
X106738095Y-139329761D01*
X106357142Y-139329761D01*
X106261904Y-139425000D01*
X106214285Y-139520238D01*
X106166666Y-139710714D01*
X106166666Y-139996428D01*
X106214285Y-140186904D01*
X106261904Y-140282142D01*
X106357142Y-140377380D01*
X106738095Y-140377380D01*
X122047619Y-143432142D02*
X121714285Y-143432142D01*
X121571428Y-144479761D02*
X122047619Y-144479761D01*
X122047619Y-142479761D01*
X121571428Y-142479761D01*
X121190476Y-144384523D02*
X121047619Y-144479761D01*
X120809523Y-144479761D01*
X120714285Y-144384523D01*
X120666666Y-144289285D01*
X120619047Y-144098809D01*
X120619047Y-143908333D01*
X120666666Y-143717857D01*
X120714285Y-143622619D01*
X120809523Y-143527380D01*
X121000000Y-143432142D01*
X121095238Y-143336904D01*
X121142857Y-143241666D01*
X121190476Y-143051190D01*
X121190476Y-142860714D01*
X121142857Y-142670238D01*
X121095238Y-142575000D01*
X121000000Y-142479761D01*
X120761904Y-142479761D01*
X120619047Y-142575000D01*
X120190476Y-144479761D02*
X120190476Y-142479761D01*
X119809523Y-142479761D01*
X119714285Y-142575000D01*
X119666666Y-142670238D01*
X119619047Y-142860714D01*
X119619047Y-143146428D01*
X119666666Y-143336904D01*
X119714285Y-143432142D01*
X119809523Y-143527380D01*
X120190476Y-143527380D01*
X119285714Y-142479761D02*
X118666666Y-142479761D01*
X119000000Y-143241666D01*
X118857142Y-143241666D01*
X118761904Y-143336904D01*
X118714285Y-143432142D01*
X118666666Y-143622619D01*
X118666666Y-144098809D01*
X118714285Y-144289285D01*
X118761904Y-144384523D01*
X118857142Y-144479761D01*
X119142857Y-144479761D01*
X119238095Y-144384523D01*
X119285714Y-144289285D01*
X118285714Y-142670238D02*
X118238095Y-142575000D01*
X118142857Y-142479761D01*
X117904761Y-142479761D01*
X117809523Y-142575000D01*
X117761904Y-142670238D01*
X117714285Y-142860714D01*
X117714285Y-143051190D01*
X117761904Y-143336904D01*
X118333333Y-144479761D01*
X117714285Y-144479761D01*
X117285714Y-143717857D02*
X116523809Y-143717857D01*
X116142857Y-142479761D02*
X115904761Y-144479761D01*
X115714285Y-143051190D01*
X115523809Y-144479761D01*
X115285714Y-142479761D01*
X114333333Y-144479761D02*
X114666666Y-143527380D01*
X114904761Y-144479761D02*
X114904761Y-142479761D01*
X114523809Y-142479761D01*
X114428571Y-142575000D01*
X114380952Y-142670238D01*
X114333333Y-142860714D01*
X114333333Y-143146428D01*
X114380952Y-143336904D01*
X114428571Y-143432142D01*
X114523809Y-143527380D01*
X114904761Y-143527380D01*
X113714285Y-142479761D02*
X113523809Y-142479761D01*
X113428571Y-142575000D01*
X113333333Y-142765476D01*
X113285714Y-143146428D01*
X113285714Y-143813095D01*
X113333333Y-144194047D01*
X113428571Y-144384523D01*
X113523809Y-144479761D01*
X113714285Y-144479761D01*
X113809523Y-144384523D01*
X113904761Y-144194047D01*
X113952380Y-143813095D01*
X113952380Y-143146428D01*
X113904761Y-142765476D01*
X113809523Y-142575000D01*
X113714285Y-142479761D01*
X112666666Y-142479761D02*
X112476190Y-142479761D01*
X112380952Y-142575000D01*
X112285714Y-142765476D01*
X112238095Y-143146428D01*
X112238095Y-143813095D01*
X112285714Y-144194047D01*
X112380952Y-144384523D01*
X112476190Y-144479761D01*
X112666666Y-144479761D01*
X112761904Y-144384523D01*
X112857142Y-144194047D01*
X112904761Y-143813095D01*
X112904761Y-143146428D01*
X112857142Y-142765476D01*
X112761904Y-142575000D01*
X112666666Y-142479761D01*
X111809523Y-144479761D02*
X111809523Y-142479761D01*
X111476190Y-143908333D01*
X111142857Y-142479761D01*
X111142857Y-144479761D01*
X110666666Y-143717857D02*
X109904761Y-143717857D01*
X109523809Y-142479761D02*
X108904761Y-142479761D01*
X109238095Y-143241666D01*
X109095238Y-143241666D01*
X109000000Y-143336904D01*
X108952380Y-143432142D01*
X108904761Y-143622619D01*
X108904761Y-144098809D01*
X108952380Y-144289285D01*
X109000000Y-144384523D01*
X109095238Y-144479761D01*
X109380952Y-144479761D01*
X109476190Y-144384523D01*
X109523809Y-144289285D01*
X108523809Y-142670238D02*
X108476190Y-142575000D01*
X108380952Y-142479761D01*
X108142857Y-142479761D01*
X108047619Y-142575000D01*
X108000000Y-142670238D01*
X107952380Y-142860714D01*
X107952380Y-143051190D01*
X108000000Y-143336904D01*
X108571428Y-144479761D01*
X107952380Y-144479761D01*
X107523809Y-142479761D02*
X107523809Y-144098809D01*
X107476190Y-144289285D01*
X107428571Y-144384523D01*
X107333333Y-144479761D01*
X107142857Y-144479761D01*
X107047619Y-144384523D01*
X107000000Y-144289285D01*
X106952380Y-144098809D01*
X106952380Y-142479761D01*
X105761904Y-142384523D02*
X106619047Y-144955952D01*
X105428571Y-142479761D02*
X105428571Y-144098809D01*
X105380952Y-144289285D01*
X105333333Y-144384523D01*
X105238095Y-144479761D01*
X105047619Y-144479761D01*
X104952380Y-144384523D01*
X104904761Y-144289285D01*
X104857142Y-144098809D01*
X104857142Y-142479761D01*
X104380952Y-143432142D02*
X104047619Y-143432142D01*
X103904761Y-144479761D02*
X104380952Y-144479761D01*
X104380952Y-142479761D01*
X103904761Y-142479761D01*
X160595238Y-138754761D02*
X160928571Y-137802380D01*
X161166666Y-138754761D02*
X161166666Y-136754761D01*
X160785714Y-136754761D01*
X160690476Y-136850000D01*
X160642857Y-136945238D01*
X160595238Y-137135714D01*
X160595238Y-137421428D01*
X160642857Y-137611904D01*
X160690476Y-137707142D01*
X160785714Y-137802380D01*
X161166666Y-137802380D01*
X160166666Y-137707142D02*
X159833333Y-137707142D01*
X159690476Y-138754761D02*
X160166666Y-138754761D01*
X160166666Y-136754761D01*
X159690476Y-136754761D01*
X159404761Y-136754761D02*
X159071428Y-138754761D01*
X158738095Y-136754761D01*
X158404761Y-138564285D02*
X158357142Y-138659523D01*
X158404761Y-138754761D01*
X158452380Y-138659523D01*
X158404761Y-138564285D01*
X158404761Y-138754761D01*
X158404761Y-137516666D02*
X158357142Y-137611904D01*
X158404761Y-137707142D01*
X158452380Y-137611904D01*
X158404761Y-137516666D01*
X158404761Y-137707142D01*
X156880952Y-136754761D02*
X156880952Y-138183333D01*
X156928571Y-138469047D01*
X157023809Y-138659523D01*
X157166666Y-138754761D01*
X157261904Y-138754761D01*
X156404761Y-136754761D02*
X156404761Y-138373809D01*
X156357142Y-138564285D01*
X156309523Y-138659523D01*
X156214285Y-138754761D01*
X156023809Y-138754761D01*
X155928571Y-138659523D01*
X155880952Y-138564285D01*
X155833333Y-138373809D01*
X155833333Y-136754761D01*
X154880952Y-138754761D02*
X155357142Y-138754761D01*
X155357142Y-136754761D01*
X154547619Y-138754761D02*
X154547619Y-136754761D01*
X154119047Y-138183333D02*
X153642857Y-138183333D01*
X154214285Y-138754761D02*
X153880952Y-136754761D01*
X153547619Y-138754761D01*
X153214285Y-138564285D02*
X153166666Y-138659523D01*
X153214285Y-138754761D01*
X153261904Y-138659523D01*
X153214285Y-138564285D01*
X153214285Y-138754761D01*
X152214285Y-138754761D02*
X152785714Y-138754761D01*
X152500000Y-138754761D02*
X152500000Y-136754761D01*
X152595238Y-137040476D01*
X152690476Y-137230952D01*
X152785714Y-137326190D01*
X151785714Y-138564285D02*
X151738095Y-138659523D01*
X151785714Y-138754761D01*
X151833333Y-138659523D01*
X151785714Y-138564285D01*
X151785714Y-138754761D01*
X151119047Y-136754761D02*
X151023809Y-136754761D01*
X150928571Y-136850000D01*
X150880952Y-136945238D01*
X150833333Y-137135714D01*
X150785714Y-137516666D01*
X150785714Y-137992857D01*
X150833333Y-138373809D01*
X150880952Y-138564285D01*
X150928571Y-138659523D01*
X151023809Y-138754761D01*
X151119047Y-138754761D01*
X151214285Y-138659523D01*
X151261904Y-138564285D01*
X151309523Y-138373809D01*
X151357142Y-137992857D01*
X151357142Y-137516666D01*
X151309523Y-137135714D01*
X151261904Y-136945238D01*
X151214285Y-136850000D01*
X151119047Y-136754761D01*
X168119047Y-141714285D02*
X168166666Y-141809523D01*
X168309523Y-141904761D01*
X168404761Y-141904761D01*
X168547619Y-141809523D01*
X168642857Y-141619047D01*
X168690476Y-141428571D01*
X168738095Y-141047619D01*
X168738095Y-140761904D01*
X168690476Y-140380952D01*
X168642857Y-140190476D01*
X168547619Y-140000000D01*
X168404761Y-139904761D01*
X168309523Y-139904761D01*
X168166666Y-140000000D01*
X168119047Y-140095238D01*
X167500000Y-139904761D02*
X167309523Y-139904761D01*
X167214285Y-140000000D01*
X167119047Y-140190476D01*
X167071428Y-140571428D01*
X167071428Y-141238095D01*
X167119047Y-141619047D01*
X167214285Y-141809523D01*
X167309523Y-141904761D01*
X167500000Y-141904761D01*
X167595238Y-141809523D01*
X167690476Y-141619047D01*
X167738095Y-141238095D01*
X167738095Y-140571428D01*
X167690476Y-140190476D01*
X167595238Y-140000000D01*
X167500000Y-139904761D01*
X166642857Y-141904761D02*
X166642857Y-139904761D01*
X166261904Y-139904761D01*
X166166666Y-140000000D01*
X166119047Y-140095238D01*
X166071428Y-140285714D01*
X166071428Y-140571428D01*
X166119047Y-140761904D01*
X166166666Y-140857142D01*
X166261904Y-140952380D01*
X166642857Y-140952380D01*
X165452380Y-140952380D02*
X165452380Y-141904761D01*
X165785714Y-139904761D02*
X165452380Y-140952380D01*
X165119047Y-139904761D01*
X164214285Y-141904761D02*
X164547619Y-140952380D01*
X164785714Y-141904761D02*
X164785714Y-139904761D01*
X164404761Y-139904761D01*
X164309523Y-140000000D01*
X164261904Y-140095238D01*
X164214285Y-140285714D01*
X164214285Y-140571428D01*
X164261904Y-140761904D01*
X164309523Y-140857142D01*
X164404761Y-140952380D01*
X164785714Y-140952380D01*
X163785714Y-141904761D02*
X163785714Y-139904761D01*
X162785714Y-140000000D02*
X162880952Y-139904761D01*
X163023809Y-139904761D01*
X163166666Y-140000000D01*
X163261904Y-140190476D01*
X163309523Y-140380952D01*
X163357142Y-140761904D01*
X163357142Y-141047619D01*
X163309523Y-141428571D01*
X163261904Y-141619047D01*
X163166666Y-141809523D01*
X163023809Y-141904761D01*
X162928571Y-141904761D01*
X162785714Y-141809523D01*
X162738095Y-141714285D01*
X162738095Y-141047619D01*
X162928571Y-141047619D01*
X162309523Y-141904761D02*
X162309523Y-139904761D01*
X162309523Y-140857142D02*
X161738095Y-140857142D01*
X161738095Y-141904761D02*
X161738095Y-139904761D01*
X161404761Y-139904761D02*
X160833333Y-139904761D01*
X161119047Y-141904761D02*
X161119047Y-139904761D01*
X159404761Y-140857142D02*
X159261904Y-140952380D01*
X159214285Y-141047619D01*
X159166666Y-141238095D01*
X159166666Y-141523809D01*
X159214285Y-141714285D01*
X159261904Y-141809523D01*
X159357142Y-141904761D01*
X159738095Y-141904761D01*
X159738095Y-139904761D01*
X159404761Y-139904761D01*
X159309523Y-140000000D01*
X159261904Y-140095238D01*
X159214285Y-140285714D01*
X159214285Y-140476190D01*
X159261904Y-140666666D01*
X159309523Y-140761904D01*
X159404761Y-140857142D01*
X159738095Y-140857142D01*
X158547619Y-140952380D02*
X158547619Y-141904761D01*
X158880952Y-139904761D02*
X158547619Y-140952380D01*
X158214285Y-139904761D01*
X157119047Y-141904761D02*
X157119047Y-139904761D01*
X156880952Y-139904761D01*
X156738095Y-140000000D01*
X156642857Y-140190476D01*
X156595238Y-140380952D01*
X156547619Y-140761904D01*
X156547619Y-141047619D01*
X156595238Y-141428571D01*
X156642857Y-141619047D01*
X156738095Y-141809523D01*
X156880952Y-141904761D01*
X157119047Y-141904761D01*
X156119047Y-139904761D02*
X156119047Y-141523809D01*
X156071428Y-141714285D01*
X156023809Y-141809523D01*
X155928571Y-141904761D01*
X155738095Y-141904761D01*
X155642857Y-141809523D01*
X155595238Y-141714285D01*
X155547619Y-141523809D01*
X155547619Y-139904761D01*
X155119047Y-141809523D02*
X154976190Y-141904761D01*
X154738095Y-141904761D01*
X154642857Y-141809523D01*
X154595238Y-141714285D01*
X154547619Y-141523809D01*
X154547619Y-141333333D01*
X154595238Y-141142857D01*
X154642857Y-141047619D01*
X154738095Y-140952380D01*
X154928571Y-140857142D01*
X155023809Y-140761904D01*
X155071428Y-140666666D01*
X155119047Y-140476190D01*
X155119047Y-140285714D01*
X155071428Y-140095238D01*
X155023809Y-140000000D01*
X154928571Y-139904761D01*
X154690476Y-139904761D01*
X154547619Y-140000000D01*
X154261904Y-139904761D02*
X153690476Y-139904761D01*
X153976190Y-141904761D02*
X153976190Y-139904761D01*
X153357142Y-141904761D02*
X153357142Y-139904761D01*
X152880952Y-141904761D02*
X152880952Y-139904761D01*
X152309523Y-141904761D01*
X152309523Y-139904761D01*
X151119047Y-141809523D02*
X150976190Y-141904761D01*
X150738095Y-141904761D01*
X150642857Y-141809523D01*
X150595238Y-141714285D01*
X150547619Y-141523809D01*
X150547619Y-141333333D01*
X150595238Y-141142857D01*
X150642857Y-141047619D01*
X150738095Y-140952380D01*
X150928571Y-140857142D01*
X151023809Y-140761904D01*
X151071428Y-140666666D01*
X151119047Y-140476190D01*
X151119047Y-140285714D01*
X151071428Y-140095238D01*
X151023809Y-140000000D01*
X150928571Y-139904761D01*
X150690476Y-139904761D01*
X150547619Y-140000000D01*
X149547619Y-141714285D02*
X149595238Y-141809523D01*
X149738095Y-141904761D01*
X149833333Y-141904761D01*
X149976190Y-141809523D01*
X150071428Y-141619047D01*
X150119047Y-141428571D01*
X150166666Y-141047619D01*
X150166666Y-140761904D01*
X150119047Y-140380952D01*
X150071428Y-140190476D01*
X149976190Y-140000000D01*
X149833333Y-139904761D01*
X149738095Y-139904761D01*
X149595238Y-140000000D01*
X149547619Y-140095238D01*
X149119047Y-141904761D02*
X149119047Y-139904761D01*
X149119047Y-140857142D02*
X148547619Y-140857142D01*
X148547619Y-141904761D02*
X148547619Y-139904761D01*
X148071428Y-141904761D02*
X148071428Y-139904761D01*
X147595238Y-141904761D02*
X147595238Y-139904761D01*
X147023809Y-141904761D01*
X147023809Y-139904761D01*
X146547619Y-141904761D02*
X146547619Y-139904761D01*
X146309523Y-139904761D01*
X146166666Y-140000000D01*
X146071428Y-140190476D01*
X146023809Y-140380952D01*
X145976190Y-140761904D01*
X145976190Y-141047619D01*
X146023809Y-141428571D01*
X146071428Y-141619047D01*
X146166666Y-141809523D01*
X146309523Y-141904761D01*
X146547619Y-141904761D01*
X145071428Y-141904761D02*
X145547619Y-141904761D01*
X145547619Y-139904761D01*
X144738095Y-140857142D02*
X144404761Y-140857142D01*
X144261904Y-141904761D02*
X144738095Y-141904761D01*
X144738095Y-139904761D01*
X144261904Y-139904761D01*
X143261904Y-141904761D02*
X143595238Y-140952380D01*
X143833333Y-141904761D02*
X143833333Y-139904761D01*
X143452380Y-139904761D01*
X143357142Y-140000000D01*
X143309523Y-140095238D01*
X143261904Y-140285714D01*
X143261904Y-140571428D01*
X143309523Y-140761904D01*
X143357142Y-140857142D01*
X143452380Y-140952380D01*
X143833333Y-140952380D01*
X164571428Y-144864285D02*
X164619047Y-144959523D01*
X164761904Y-145054761D01*
X164857142Y-145054761D01*
X165000000Y-144959523D01*
X165095238Y-144769047D01*
X165142857Y-144578571D01*
X165190476Y-144197619D01*
X165190476Y-143911904D01*
X165142857Y-143530952D01*
X165095238Y-143340476D01*
X165000000Y-143150000D01*
X164857142Y-143054761D01*
X164761904Y-143054761D01*
X164619047Y-143150000D01*
X164571428Y-143245238D01*
X163952380Y-143054761D02*
X163761904Y-143054761D01*
X163666666Y-143150000D01*
X163571428Y-143340476D01*
X163523809Y-143721428D01*
X163523809Y-144388095D01*
X163571428Y-144769047D01*
X163666666Y-144959523D01*
X163761904Y-145054761D01*
X163952380Y-145054761D01*
X164047619Y-144959523D01*
X164142857Y-144769047D01*
X164190476Y-144388095D01*
X164190476Y-143721428D01*
X164142857Y-143340476D01*
X164047619Y-143150000D01*
X163952380Y-143054761D01*
X163095238Y-145054761D02*
X163095238Y-143054761D01*
X162761904Y-144483333D01*
X162428571Y-143054761D01*
X162428571Y-145054761D01*
X161952380Y-145054761D02*
X161952380Y-143054761D01*
X161571428Y-143054761D01*
X161476190Y-143150000D01*
X161428571Y-143245238D01*
X161380952Y-143435714D01*
X161380952Y-143721428D01*
X161428571Y-143911904D01*
X161476190Y-144007142D01*
X161571428Y-144102380D01*
X161952380Y-144102380D01*
X160952380Y-144864285D02*
X160904761Y-144959523D01*
X160952380Y-145054761D01*
X161000000Y-144959523D01*
X160952380Y-144864285D01*
X160952380Y-145054761D01*
X159714285Y-145054761D02*
X159714285Y-143054761D01*
X159476190Y-143054761D01*
X159333333Y-143150000D01*
X159238095Y-143340476D01*
X159190476Y-143530952D01*
X159142857Y-143911904D01*
X159142857Y-144197619D01*
X159190476Y-144578571D01*
X159238095Y-144769047D01*
X159333333Y-144959523D01*
X159476190Y-145054761D01*
X159714285Y-145054761D01*
X158761904Y-144483333D02*
X158285714Y-144483333D01*
X158857142Y-145054761D02*
X158523809Y-143054761D01*
X158190476Y-145054761D01*
X158000000Y-143054761D02*
X157428571Y-143054761D01*
X157714285Y-145054761D02*
X157714285Y-143054761D01*
X157095238Y-144007142D02*
X156761904Y-144007142D01*
X156619047Y-145054761D02*
X157095238Y-145054761D01*
X157095238Y-143054761D01*
X156619047Y-143054761D01*
X156190476Y-144864285D02*
X156142857Y-144959523D01*
X156190476Y-145054761D01*
X156238095Y-144959523D01*
X156190476Y-144864285D01*
X156190476Y-145054761D01*
X156190476Y-143816666D02*
X156142857Y-143911904D01*
X156190476Y-144007142D01*
X156238095Y-143911904D01*
X156190476Y-143816666D01*
X156190476Y-144007142D01*
X155000000Y-143245238D02*
X154952380Y-143150000D01*
X154857142Y-143054761D01*
X154619047Y-143054761D01*
X154523809Y-143150000D01*
X154476190Y-143245238D01*
X154428571Y-143435714D01*
X154428571Y-143626190D01*
X154476190Y-143911904D01*
X155047619Y-145054761D01*
X154428571Y-145054761D01*
X154095238Y-143054761D02*
X153428571Y-143054761D01*
X153857142Y-145054761D01*
X153047619Y-144864285D02*
X153000000Y-144959523D01*
X153047619Y-145054761D01*
X153095238Y-144959523D01*
X153047619Y-144864285D01*
X153047619Y-145054761D01*
X152380952Y-143054761D02*
X152285714Y-143054761D01*
X152190476Y-143150000D01*
X152142857Y-143245238D01*
X152095238Y-143435714D01*
X152047619Y-143816666D01*
X152047619Y-144292857D01*
X152095238Y-144673809D01*
X152142857Y-144864285D01*
X152190476Y-144959523D01*
X152285714Y-145054761D01*
X152380952Y-145054761D01*
X152476190Y-144959523D01*
X152523809Y-144864285D01*
X152571428Y-144673809D01*
X152619047Y-144292857D01*
X152619047Y-143816666D01*
X152571428Y-143435714D01*
X152523809Y-143245238D01*
X152476190Y-143150000D01*
X152380952Y-143054761D01*
X151095238Y-145054761D02*
X151666666Y-145054761D01*
X151380952Y-145054761D02*
X151380952Y-143054761D01*
X151476190Y-143340476D01*
X151571428Y-143530952D01*
X151666666Y-143626190D01*
X150666666Y-144864285D02*
X150619047Y-144959523D01*
X150666666Y-145054761D01*
X150714285Y-144959523D01*
X150666666Y-144864285D01*
X150666666Y-145054761D01*
X150238095Y-143245238D02*
X150190476Y-143150000D01*
X150095238Y-143054761D01*
X149857142Y-143054761D01*
X149761904Y-143150000D01*
X149714285Y-143245238D01*
X149666666Y-143435714D01*
X149666666Y-143626190D01*
X149714285Y-143911904D01*
X150285714Y-145054761D01*
X149666666Y-145054761D01*
X149047619Y-143054761D02*
X148952380Y-143054761D01*
X148857142Y-143150000D01*
X148809523Y-143245238D01*
X148761904Y-143435714D01*
X148714285Y-143816666D01*
X148714285Y-144292857D01*
X148761904Y-144673809D01*
X148809523Y-144864285D01*
X148857142Y-144959523D01*
X148952380Y-145054761D01*
X149047619Y-145054761D01*
X149142857Y-144959523D01*
X149190476Y-144864285D01*
X149238095Y-144673809D01*
X149285714Y-144292857D01*
X149285714Y-143816666D01*
X149238095Y-143435714D01*
X149190476Y-143245238D01*
X149142857Y-143150000D01*
X149047619Y-143054761D01*
X148333333Y-143245238D02*
X148285714Y-143150000D01*
X148190476Y-143054761D01*
X147952380Y-143054761D01*
X147857142Y-143150000D01*
X147809523Y-143245238D01*
X147761904Y-143435714D01*
X147761904Y-143626190D01*
X147809523Y-143911904D01*
X148380952Y-145054761D01*
X147761904Y-145054761D01*
X147380952Y-143245238D02*
X147333333Y-143150000D01*
X147238095Y-143054761D01*
X147000000Y-143054761D01*
X146904761Y-143150000D01*
X146857142Y-143245238D01*
X146809523Y-143435714D01*
X146809523Y-143626190D01*
X146857142Y-143911904D01*
X147428571Y-145054761D01*
X146809523Y-145054761D01*
D11*
%TO.C,REF\u002A\u002A*%
X180000000Y-60000000D03*
%TD*%
%TO.C,REF\u002A\u002A*%
X180000000Y-140000000D03*
%TD*%
%TO.C,REF\u002A\u002A*%
X90000000Y-141000000D03*
%TD*%
D12*
%TO.C,J2*%
X185000000Y-95000000D03*
X185000000Y-100000000D03*
X185000000Y-105000000D03*
X185000000Y-110000000D03*
D13*
X185000000Y-115000000D03*
%TD*%
D14*
%TO.C,D2*%
X86540000Y-72000000D03*
D15*
X84000000Y-72000000D03*
%TD*%
D12*
%TO.C,J2*%
X185000000Y-120000000D03*
X185000000Y-125000000D03*
D13*
X185000000Y-130000000D03*
%TD*%
D16*
%TO.C,U2*%
X160255000Y-55150000D03*
X157715000Y-55150000D03*
D17*
X155175000Y-55150000D03*
%TD*%
D18*
%TO.C,R5*%
X91975000Y-78905000D03*
D19*
X91975000Y-86525000D03*
%TD*%
D18*
%TO.C,R4*%
X91975000Y-68080000D03*
D19*
X91975000Y-75700000D03*
%TD*%
D18*
%TO.C,R3*%
X115950000Y-87720000D03*
D19*
X115950000Y-80100000D03*
%TD*%
D18*
%TO.C,R2*%
X94488000Y-119634000D03*
D19*
X86868000Y-119634000D03*
%TD*%
D18*
%TO.C,R1*%
X109500000Y-87720000D03*
D19*
X109500000Y-80100000D03*
%TD*%
D20*
%TO.C,Q12*%
X161041667Y-132290000D03*
X161041667Y-130000000D03*
D21*
X161041667Y-127710000D03*
%TD*%
%TO.C,Q11*%
X148825000Y-127300000D03*
D20*
X148825000Y-125010000D03*
X148825000Y-122720000D03*
%TD*%
D21*
%TO.C,Q10*%
X161025000Y-117700000D03*
D20*
X161025000Y-119990000D03*
X161025000Y-122280000D03*
%TD*%
%TO.C,Q9*%
X148825000Y-112695000D03*
X148825000Y-114985000D03*
D21*
X148825000Y-117275000D03*
%TD*%
D20*
%TO.C,Q8*%
X160975000Y-112305000D03*
X160975000Y-110015000D03*
D21*
X160975000Y-107725000D03*
%TD*%
D20*
%TO.C,Q7*%
X148850000Y-102695000D03*
X148850000Y-104985000D03*
D21*
X148850000Y-107275000D03*
%TD*%
D20*
%TO.C,Q6*%
X160975000Y-102305000D03*
X160975000Y-100015000D03*
D21*
X160975000Y-97725000D03*
%TD*%
D20*
%TO.C,Q5*%
X148925000Y-92695000D03*
X148925000Y-94985000D03*
D21*
X148925000Y-97275000D03*
%TD*%
D20*
%TO.C,Q4*%
X160975000Y-92380000D03*
X160975000Y-90090000D03*
D21*
X160975000Y-87800000D03*
%TD*%
D20*
%TO.C,Q3*%
X148925000Y-82820000D03*
X148925000Y-85110000D03*
D21*
X148925000Y-87400000D03*
%TD*%
D20*
%TO.C,Q2*%
X161000000Y-82330000D03*
X161000000Y-80040000D03*
D21*
X161000000Y-77750000D03*
%TD*%
D20*
%TO.C,Q1*%
X148925000Y-72770000D03*
X148925000Y-75060000D03*
D21*
X148925000Y-77350000D03*
%TD*%
D22*
%TO.C,J7*%
X104129000Y-135717000D03*
X104129000Y-133177000D03*
X104129000Y-130637000D03*
X104129000Y-128097000D03*
X104129000Y-125557000D03*
X104129000Y-123017000D03*
D23*
X104129000Y-120477000D03*
%TD*%
D22*
%TO.C,J6*%
X147030000Y-54400000D03*
X144490000Y-54400000D03*
D23*
X141950000Y-54400000D03*
%TD*%
D22*
%TO.C,J5*%
X121888000Y-133860000D03*
X121888000Y-131320000D03*
X121888000Y-128780000D03*
X121888000Y-126240000D03*
X121888000Y-123700000D03*
X121888000Y-121160000D03*
X121888000Y-118620000D03*
X121888000Y-116080000D03*
X121888000Y-113540000D03*
X121888000Y-111000000D03*
X121888000Y-108460000D03*
X121888000Y-105920000D03*
X121888000Y-103380000D03*
X121888000Y-100840000D03*
X121888000Y-98300000D03*
D23*
X121888000Y-95760000D03*
%TD*%
D22*
%TO.C,J4*%
X119375000Y-133850000D03*
X119375000Y-131310000D03*
X119375000Y-128770000D03*
X119375000Y-126230000D03*
X119375000Y-123690000D03*
X119375000Y-121150000D03*
X119375000Y-118610000D03*
X119375000Y-116070000D03*
X119375000Y-113530000D03*
X119375000Y-110990000D03*
X119375000Y-108450000D03*
X119375000Y-105910000D03*
X119375000Y-103370000D03*
X119375000Y-100830000D03*
X119375000Y-98290000D03*
D23*
X119375000Y-95750000D03*
%TD*%
D22*
%TO.C,J3*%
X98100000Y-68380000D03*
X98100000Y-70920000D03*
X98100000Y-73460000D03*
D23*
X98100000Y-76000000D03*
%TD*%
D12*
%TO.C,J2*%
X184975000Y-70125000D03*
X184975000Y-75125000D03*
X184975000Y-80125000D03*
X184975000Y-85125000D03*
D13*
X184975000Y-90125000D03*
%TD*%
D12*
%TO.C,J1*%
X85000000Y-62000000D03*
D13*
X85000000Y-57000000D03*
%TD*%
D24*
%TO.C,F2*%
X118950000Y-71150000D03*
D25*
X107700000Y-71150000D03*
X130200000Y-71150000D03*
%TD*%
D24*
%TO.C,F1*%
X119000000Y-57700000D03*
D25*
X107750000Y-57700000D03*
X130250000Y-57700000D03*
%TD*%
D14*
%TO.C,D4*%
X86640000Y-81750000D03*
D15*
X84100000Y-81750000D03*
%TD*%
D26*
%TO.C,D3*%
X93980000Y-57000000D03*
D27*
X101600000Y-57000000D03*
%TD*%
D26*
%TO.C,D1*%
X101620000Y-62000000D03*
D27*
X94000000Y-62000000D03*
%TD*%
D19*
%TO.C,C10pF1*%
X144200000Y-61725000D03*
D28*
X146200000Y-61725000D03*
%TD*%
D19*
%TO.C,C100nF1*%
X167825000Y-61450000D03*
D28*
X170325000Y-61450000D03*
%TD*%
M02*
