%TF.GenerationSoftware,KiCad,Pcbnew,(5.1.10)-1*%
%TF.CreationDate,2022-01-27T04:55:15+01:00*%
%TF.ProjectId,_autosave-ESP32LedControllerRGBWWf_rJulia,5f617574-6f73-4617-9665-2d4553503332,rev?*%
%TF.SameCoordinates,Original*%
%TF.FileFunction,Soldermask,Top*%
%TF.FilePolarity,Negative*%
%FSLAX46Y46*%
G04 Gerber Fmt 4.6, Leading zero omitted, Abs format (unit mm)*
G04 Created by KiCad (PCBNEW (5.1.10)-1) date 2022-01-27 04:55:15*
%MOMM*%
%LPD*%
G01*
G04 APERTURE LIST*
%ADD10C,6.400000*%
%ADD11R,0.900000X2.000000*%
%ADD12R,2.000000X0.900000*%
%ADD13R,5.000000X5.000000*%
%ADD14C,2.600000*%
%ADD15R,2.600000X2.600000*%
%ADD16C,1.800000*%
%ADD17R,1.800000X1.800000*%
%ADD18C,2.000000*%
%ADD19R,2.000000X2.000000*%
%ADD20R,1.550000X1.300000*%
%ADD21O,1.600000X1.600000*%
%ADD22C,1.600000*%
%ADD23O,1.800000X1.717500*%
%ADD24R,1.800000X1.717500*%
%ADD25R,6.200000X5.700000*%
%ADD26O,1.700000X1.700000*%
%ADD27R,1.700000X1.700000*%
%ADD28C,2.700000*%
%ADD29C,3.000000*%
%ADD30O,2.200000X2.200000*%
%ADD31R,2.200000X2.200000*%
%ADD32R,1.600000X1.600000*%
G04 APERTURE END LIST*
D10*
%TO.C,REF\u002A\u002A*%
X180000000Y-60000000D03*
%TD*%
%TO.C,REF\u002A\u002A*%
X180000000Y-140000000D03*
%TD*%
%TO.C,REF\u002A\u002A*%
X90000000Y-141000000D03*
%TD*%
D11*
%TO.C,U1*%
X88995000Y-94500000D03*
X90265000Y-94500000D03*
X91535000Y-94500000D03*
X92805000Y-94500000D03*
X94075000Y-94500000D03*
X95345000Y-94500000D03*
X96615000Y-94500000D03*
X97885000Y-94500000D03*
X99155000Y-94500000D03*
X100425000Y-94500000D03*
X101695000Y-94500000D03*
X102965000Y-94500000D03*
X104235000Y-94500000D03*
X105505000Y-94500000D03*
D12*
X106505000Y-97285000D03*
X106505000Y-98555000D03*
X106505000Y-99825000D03*
X106505000Y-101095000D03*
X106505000Y-102365000D03*
X106505000Y-103635000D03*
X106505000Y-104905000D03*
X106505000Y-106175000D03*
X106505000Y-107445000D03*
X106505000Y-108715000D03*
D11*
X105505000Y-111500000D03*
X104235000Y-111500000D03*
X102965000Y-111500000D03*
X101695000Y-111500000D03*
X100425000Y-111500000D03*
X99155000Y-111500000D03*
X97885000Y-111500000D03*
X96615000Y-111500000D03*
X95345000Y-111500000D03*
X94075000Y-111500000D03*
X92805000Y-111500000D03*
X91535000Y-111500000D03*
X90265000Y-111500000D03*
X88995000Y-111500000D03*
D13*
X96495000Y-104000000D03*
%TD*%
D14*
%TO.C,J2*%
X185000000Y-95000000D03*
X185000000Y-100000000D03*
X185000000Y-105000000D03*
X185000000Y-110000000D03*
D15*
X185000000Y-115000000D03*
%TD*%
D16*
%TO.C,D2*%
X86540000Y-72000000D03*
D17*
X84000000Y-72000000D03*
%TD*%
D14*
%TO.C,J2*%
X185000000Y-120000000D03*
X185000000Y-125000000D03*
D15*
X185000000Y-130000000D03*
%TD*%
D18*
%TO.C,U2*%
X160255000Y-55150000D03*
X157715000Y-55150000D03*
D19*
X155175000Y-55150000D03*
%TD*%
D20*
%TO.C,SW2*%
X94600000Y-130525000D03*
X86650000Y-130525000D03*
X94600000Y-126025000D03*
X86650000Y-126025000D03*
%TD*%
%TO.C,SW1*%
X97175000Y-82200000D03*
X105125000Y-82200000D03*
X97175000Y-86700000D03*
X105125000Y-86700000D03*
%TD*%
D21*
%TO.C,R5*%
X91975000Y-78905000D03*
D22*
X91975000Y-86525000D03*
%TD*%
D21*
%TO.C,R4*%
X91975000Y-68080000D03*
D22*
X91975000Y-75700000D03*
%TD*%
D21*
%TO.C,R3*%
X115950000Y-87720000D03*
D22*
X115950000Y-80100000D03*
%TD*%
D21*
%TO.C,R2*%
X94488000Y-119634000D03*
D22*
X86868000Y-119634000D03*
%TD*%
D21*
%TO.C,R1*%
X109500000Y-87720000D03*
D22*
X109500000Y-80100000D03*
%TD*%
D23*
%TO.C,Q12*%
X161041667Y-132290000D03*
X161041667Y-130000000D03*
D24*
X161041667Y-127710000D03*
D25*
X168475000Y-130000000D03*
%TD*%
%TO.C,Q11*%
X141391667Y-125010000D03*
D24*
X148825000Y-127300000D03*
D23*
X148825000Y-125010000D03*
X148825000Y-122720000D03*
%TD*%
D25*
%TO.C,Q10*%
X168458333Y-119990000D03*
D24*
X161025000Y-117700000D03*
D23*
X161025000Y-119990000D03*
X161025000Y-122280000D03*
%TD*%
%TO.C,Q9*%
X148825000Y-112695000D03*
X148825000Y-114985000D03*
D24*
X148825000Y-117275000D03*
D25*
X141391667Y-114985000D03*
%TD*%
D23*
%TO.C,Q8*%
X160975000Y-112305000D03*
X160975000Y-110015000D03*
D24*
X160975000Y-107725000D03*
D25*
X168408333Y-110015000D03*
%TD*%
D23*
%TO.C,Q7*%
X148850000Y-102695000D03*
X148850000Y-104985000D03*
D24*
X148850000Y-107275000D03*
D25*
X141416667Y-104985000D03*
%TD*%
D23*
%TO.C,Q6*%
X160975000Y-102305000D03*
X160975000Y-100015000D03*
D24*
X160975000Y-97725000D03*
D25*
X168408333Y-100015000D03*
%TD*%
D23*
%TO.C,Q5*%
X148925000Y-92695000D03*
X148925000Y-94985000D03*
D24*
X148925000Y-97275000D03*
D25*
X141491667Y-94985000D03*
%TD*%
D23*
%TO.C,Q4*%
X160975000Y-92380000D03*
X160975000Y-90090000D03*
D24*
X160975000Y-87800000D03*
D25*
X168408333Y-90090000D03*
%TD*%
D23*
%TO.C,Q3*%
X148925000Y-82820000D03*
X148925000Y-85110000D03*
D24*
X148925000Y-87400000D03*
D25*
X141491667Y-85110000D03*
%TD*%
D23*
%TO.C,Q2*%
X161000000Y-82330000D03*
X161000000Y-80040000D03*
D24*
X161000000Y-77750000D03*
D25*
X168433333Y-80040000D03*
%TD*%
D23*
%TO.C,Q1*%
X148925000Y-72770000D03*
X148925000Y-75060000D03*
D24*
X148925000Y-77350000D03*
D25*
X141491667Y-75060000D03*
%TD*%
D26*
%TO.C,J7*%
X104129000Y-135717000D03*
X104129000Y-133177000D03*
X104129000Y-130637000D03*
X104129000Y-128097000D03*
X104129000Y-125557000D03*
X104129000Y-123017000D03*
D27*
X104129000Y-120477000D03*
%TD*%
D26*
%TO.C,J6*%
X147030000Y-54400000D03*
X144490000Y-54400000D03*
D27*
X141950000Y-54400000D03*
%TD*%
D26*
%TO.C,J5*%
X121888000Y-133860000D03*
X121888000Y-131320000D03*
X121888000Y-128780000D03*
X121888000Y-126240000D03*
X121888000Y-123700000D03*
X121888000Y-121160000D03*
X121888000Y-118620000D03*
X121888000Y-116080000D03*
X121888000Y-113540000D03*
X121888000Y-111000000D03*
X121888000Y-108460000D03*
X121888000Y-105920000D03*
X121888000Y-103380000D03*
X121888000Y-100840000D03*
X121888000Y-98300000D03*
D27*
X121888000Y-95760000D03*
%TD*%
D26*
%TO.C,J4*%
X119375000Y-133850000D03*
X119375000Y-131310000D03*
X119375000Y-128770000D03*
X119375000Y-126230000D03*
X119375000Y-123690000D03*
X119375000Y-121150000D03*
X119375000Y-118610000D03*
X119375000Y-116070000D03*
X119375000Y-113530000D03*
X119375000Y-110990000D03*
X119375000Y-108450000D03*
X119375000Y-105910000D03*
X119375000Y-103370000D03*
X119375000Y-100830000D03*
X119375000Y-98290000D03*
D27*
X119375000Y-95750000D03*
%TD*%
D26*
%TO.C,J3*%
X98100000Y-68380000D03*
X98100000Y-70920000D03*
X98100000Y-73460000D03*
D27*
X98100000Y-76000000D03*
%TD*%
D14*
%TO.C,J2*%
X184975000Y-70125000D03*
X184975000Y-75125000D03*
X184975000Y-80125000D03*
X184975000Y-85125000D03*
D15*
X184975000Y-90125000D03*
%TD*%
D14*
%TO.C,J1*%
X85000000Y-62000000D03*
D15*
X85000000Y-57000000D03*
%TD*%
D28*
%TO.C,F2*%
X118950000Y-71150000D03*
D29*
X107700000Y-71150000D03*
X130200000Y-71150000D03*
%TD*%
D28*
%TO.C,F1*%
X119000000Y-57700000D03*
D29*
X107750000Y-57700000D03*
X130250000Y-57700000D03*
%TD*%
D16*
%TO.C,D4*%
X86640000Y-81750000D03*
D17*
X84100000Y-81750000D03*
%TD*%
D30*
%TO.C,D3*%
X93980000Y-57000000D03*
D31*
X101600000Y-57000000D03*
%TD*%
D30*
%TO.C,D1*%
X101620000Y-62000000D03*
D31*
X94000000Y-62000000D03*
%TD*%
D22*
%TO.C,C10pF1*%
X144200000Y-61725000D03*
D32*
X146200000Y-61725000D03*
%TD*%
D22*
%TO.C,C100nF1*%
X167825000Y-61450000D03*
D32*
X170325000Y-61450000D03*
%TD*%
M02*
