M48
; DRILL file {KiCad (5.1.10)-1} date 01/27/22 04:55:10
; FORMAT={-:-/ absolute / inch / decimal}
; #@! TF.CreationDate,2022-01-27T04:55:10+01:00
; #@! TF.GenerationSoftware,Kicad,Pcbnew,(5.1.10)-1
; #@! TF.FileFunction,Plated,1,2,PTH
FMAT,2
INCH
T1C0.0157
T2C0.0315
T3C0.0354
T4C0.0394
T5C0.0433
T6C0.0512
T7C0.1260
%
G90
G05
T1
X3.4587Y-4.9606
X3.5Y-3.77
X3.5Y-4.34
X3.56Y-3.77
X3.61Y-3.77
X3.6687Y-4.9606
X3.72Y-4.05
X3.72Y-4.11
X3.72Y-4.17
X3.73Y-4.02
X3.73Y-4.08
X3.73Y-4.14
X3.75Y-4.05
X3.75Y-4.11
X3.75Y-4.17
X3.76Y-3.77
X3.76Y-4.02
X3.76Y-4.08
X3.76Y-4.14
X3.78Y-4.05
X3.78Y-4.11
X3.78Y-4.17
X3.79Y-4.02
X3.79Y-4.08
X3.79Y-4.14
X3.8Y-4.45
X3.81Y-4.05
X3.81Y-4.11
X3.81Y-4.17
X3.82Y-4.02
X3.82Y-4.08
X3.82Y-4.14
X3.84Y-4.05
X3.84Y-4.11
X3.84Y-4.17
X3.85Y-4.02
X3.85Y-4.08
X3.85Y-4.14
X3.86Y-3.77
X3.8687Y-3.2406
X3.87Y-4.05
X3.87Y-4.11
X3.87Y-4.17
X3.88Y-4.02
X3.88Y-4.08
X3.88Y-4.14
X3.9Y-4.45
X3.91Y-3.77
X3.95Y-4.34
X4.01Y-3.77
X4.01Y-4.44
X4.06Y-3.77
X4.0987Y-3.2406
X4.14Y-4.28
X4.21Y-4.48
X4.26Y-3.83
X4.4Y-4.22
X4.45Y-4.27
X4.52Y-4.14
X4.57Y-4.2
T2
X3.42Y-4.71
X3.6211Y-2.6803
X3.6211Y-2.9803
X3.6211Y-3.1065
X3.6211Y-3.4065
X3.72Y-4.71
X4.311Y-3.1535
X4.311Y-3.4535
X4.565Y-3.1535
X4.565Y-3.4535
X5.6772Y-2.4301
X5.7559Y-2.4301
X6.6073Y-2.4193
X6.7057Y-2.4193
T3
X3.3071Y-2.8346
X3.311Y-3.2185
X3.4071Y-2.8346
X3.411Y-3.2185
T4
X3.8622Y-2.6921
X3.8622Y-2.7921
X3.8622Y-2.8921
X3.8622Y-2.9921
X4.0996Y-4.7432
X4.0996Y-4.8432
X4.0996Y-4.9432
X4.0996Y-5.0432
X4.0996Y-5.1432
X4.0996Y-5.2432
X4.0996Y-5.3432
X4.6998Y-3.7697
X4.6998Y-3.8697
X4.6998Y-3.9697
X4.6998Y-4.0697
X4.6998Y-4.1697
X4.6998Y-4.2697
X4.6998Y-4.3697
X4.6998Y-4.4697
X4.6998Y-4.5697
X4.6998Y-4.6697
X4.6998Y-4.7697
X4.6998Y-4.8697
X4.6998Y-4.9697
X4.6998Y-5.0697
X4.6998Y-5.1697
X4.6998Y-5.2697
X4.7987Y-3.7701
X4.7987Y-3.8701
X4.7987Y-3.9701
X4.7987Y-4.0701
X4.7987Y-4.1701
X4.7987Y-4.2701
X4.7987Y-4.3701
X4.7987Y-4.4701
X4.7987Y-4.5701
X4.7987Y-4.6701
X4.7987Y-4.7701
X4.7987Y-4.8701
X4.7987Y-4.9701
X4.7987Y-5.0701
X4.7987Y-5.1701
X4.7987Y-5.2701
X5.5886Y-2.1417
X5.6886Y-2.1417
X5.7886Y-2.1417
X6.1093Y-2.1713
X6.2093Y-2.1713
X6.3093Y-2.1713
T5
X3.7Y-2.2441
X3.7008Y-2.4409
X4.0Y-2.2441
X4.0008Y-2.4409
X5.8593Y-4.4368
X5.8593Y-4.527
X5.8593Y-4.6171
X5.8593Y-4.8315
X5.8593Y-4.9217
X5.8593Y-5.0118
X5.8602Y-4.0431
X5.8602Y-4.1333
X5.8602Y-4.2234
X5.8632Y-2.865
X5.8632Y-2.9551
X5.8632Y-3.0453
X5.8632Y-3.2606
X5.8632Y-3.3508
X5.8632Y-3.4409
X5.8632Y-3.6494
X5.8632Y-3.7396
X5.8632Y-3.8297
X6.3376Y-3.4567
X6.3376Y-3.5469
X6.3376Y-3.637
X6.3376Y-3.8474
X6.3376Y-3.9376
X6.3376Y-4.0278
X6.3376Y-4.2411
X6.3376Y-4.3313
X6.3376Y-4.4215
X6.3386Y-3.061
X6.3386Y-3.1512
X6.3386Y-3.2413
X6.3396Y-4.6339
X6.3396Y-4.724
X6.3396Y-4.8142
X6.3402Y-5.028
X6.3402Y-5.1181
X6.3402Y-5.2083
T6
X3.3465Y-2.2441
X3.3465Y-2.4409
X4.2402Y-2.8012
X4.2421Y-2.2717
X5.126Y-2.8012
X5.128Y-2.2717
X7.2825Y-2.7608
X7.2825Y-2.9577
X7.2825Y-3.1545
X7.2825Y-3.3514
X7.2825Y-3.5482
X7.2835Y-3.7402
X7.2835Y-3.937
X7.2835Y-4.1339
X7.2835Y-4.3307
X7.2835Y-4.5276
X7.2835Y-4.7244
X7.2835Y-4.9213
X7.2835Y-5.1181
T7
X3.5433Y-5.5512
X7.0866Y-2.3622
X7.0866Y-5.5118
T0
M30
